<?xml version="1.0" standalone="no"?>
<!DOCTYPE svg PUBLIC "-//W3C//DTD SVG 20010904//EN"
 "http://www.w3.org/TR/2001/REC-SVG-20010904/DTD/svg10.dtd">
<svg version="1.0" xmlns="http://www.w3.org/2000/svg"
 width="512.000000pt" height="512.000000pt" viewBox="0 0 512.000000 512.000000"
 preserveAspectRatio="xMidYMid meet">
<metadata>
Created by potrace 1.14, written by Peter Selinger 2001-2017
</metadata>
<g transform="translate(0.000000,512.000000) scale(0.100000,-0.100000)"
fill="#000000" stroke="none">
<path d="M3505 5096 c-157 -45 -320 -126 -442 -221 -142 -111 -308 -316 -392
-484 -146 -294 -202 -659 -147 -966 47 -261 129 -462 266 -653 33 -46 60 -84
60 -85 0 -1 -162 -2 -361 -2 -198 0 -365 -2 -370 -5 -5 -4 -24 -59 -43 -123
l-34 -117 42 -1 c55 -1 82 -6 116 -24 41 -21 52 -47 49 -118 -3 -70 -22 -148
-115 -461 -36 -122 -70 -234 -74 -251 -4 -16 -36 -122 -70 -235 -34 -113 -73
-243 -86 -290 -106 -361 -164 -550 -169 -550 -2 0 -2 125 0 278 12 912 17
1321 18 1592 l2 305 -142 0 -142 0 -147 -290 c-81 -159 -184 -362 -229 -450
-45 -88 -186 -367 -315 -620 -457 -902 -468 -921 -545 -998 -21 -20 -62 -49
-90 -62 l-51 -25 -32 -108 c-18 -59 -32 -113 -32 -119 0 -10 74 -13 335 -13
l334 0 20 68 c11 37 25 86 31 110 6 24 13 49 16 56 3 8 -10 12 -43 13 -71 3
-131 22 -153 51 -35 44 -22 123 43 262 59 128 139 298 155 330 l18 35 343 0
343 0 -2 -155 c-4 -366 -20 -432 -121 -483 -30 -15 -78 -30 -107 -34 -29 -3
-55 -10 -58 -14 -3 -5 -20 -61 -38 -124 l-33 -115 523 0 523 0 31 102 c43 140
42 138 33 139 -4 1 -31 2 -60 4 -111 7 -153 39 -155 118 -1 59 2 72 104 417
50 168 97 328 105 356 l15 52 202 1 c194 2 223 3 311 16 191 26 386 159 509
345 120 181 180 390 179 622 0 105 1 116 16 109 14 -8 61 -19 196 -47 41 -9
268 -13 280 -6 5 3 16 7 25 8 30 4 86 13 110 19 14 3 35 8 47 11 84 17 284
108 368 166 68 48 177 143 235 205 174 188 322 482 364 723 3 19 8 45 10 58
45 225 23 520 -55 757 -42 124 -114 272 -192 388 -55 82 -219 259 -287 311
-109 82 -288 176 -390 205 -25 8 -64 19 -87 26 -29 10 -109 13 -265 13 -201 0
-231 -2 -303 -22z m445 -121 c143 -18 310 -81 441 -167 86 -56 216 -170 189
-166 -61 9 -143 -48 -173 -122 -43 -105 -30 -178 67 -375 41 -82 82 -172 90
-200 39 -132 38 -274 -5 -436 -27 -103 -26 -99 -42 -149 -20 -60 -120 -432
-120 -447 -1 -26 -15 -12 -25 25 -26 95 -124 421 -137 455 -8 20 -13 37 -10
37 3 0 -2 17 -9 38 -8 20 -24 69 -35 107 -11 39 -29 102 -41 140 -12 39 -34
113 -50 165 -15 52 -49 164 -74 249 -26 84 -45 156 -42 159 3 2 20 6 38 7 108
9 128 19 128 65 0 55 -4 56 -185 45 -66 -4 -142 -8 -170 -8 -40 0 -278 11
-303 14 -43 6 -72 -36 -53 -78 11 -23 42 -33 117 -36 l42 -2 91 -282 92 -281
-21 -64 c-11 -35 -22 -72 -24 -83 -4 -17 -41 -140 -167 -560 -17 -55 -33 -109
-36 -119 -8 -28 -15 -11 -61 144 -22 74 -97 324 -167 555 -193 641 -204 679
-200 684 3 2 24 6 47 8 91 7 109 13 119 40 15 41 -18 80 -63 75 -21 -3 -205
-14 -271 -16 -58 -2 -80 1 -84 11 -8 21 83 141 186 244 253 255 577 369 921
324z m906 -722 c53 -124 93 -275 110 -418 6 -49 6 -267 0 -315 -3 -25 -9 -63
-11 -85 -9 -67 -56 -225 -92 -310 -90 -210 -228 -393 -395 -521 -32 -26 -61
-44 -63 -42 -3 2 11 56 29 119 19 63 47 155 61 204 14 50 30 99 35 110 5 11
34 103 65 205 96 313 101 332 139 450 86 274 105 372 102 543 -1 53 -1 97 1
97 1 0 10 -17 19 -37z m-2103 -88 c2 -11 9 -33 15 -48 7 -16 12 -31 12 -34 0
-6 180 -560 275 -848 113 -340 205 -624 205 -630 0 -4 -16 3 -36 16 -20 12
-65 30 -101 39 -72 19 -109 48 -197 160 -256 323 -344 741 -252 1195 2 11 16
58 31 104 25 79 39 93 48 46z m1208 -1015 c61 -190 138 -426 170 -524 32 -99
58 -181 56 -182 -9 -9 -194 -57 -247 -63 -68 -9 -253 -7 -305 3 -69 14 -155
40 -155 47 0 9 58 200 224 742 64 208 116 381 117 385 1 15 32 -75 140 -408z
m-1061 -716 c100 -14 165 -73 199 -183 11 -34 8 -229 -4 -286 -52 -250 -133
-384 -286 -472 -32 -18 -90 -41 -122 -47 -104 -21 -387 -30 -381 -12 2 6 42
144 89 306 48 162 102 349 121 415 64 219 100 264 226 283 54 8 78 8 158 -4z
m-1415 -621 c-4 -274 -8 -529 -8 -568 l-2 -70 -282 -3 -282 -2 219 432 c121
238 251 495 288 570 37 75 69 137 71 138 2 0 0 -224 -4 -497z"/>
</g>
</svg>
